<svg xmlns="http://www.w3.org/2000/svg" viewBox="0 0 128.19 85.48"><defs><style>.cls-1{fill:#dd2910;}.cls-2{fill:#fefefe;}.cls-3{fill:#fedd00;}.cls-4{fill:#f9c402;}</style></defs><title>Asset 20</title><g id="Layer_2" data-name="Layer 2"><g id="Layer_1-2" data-name="Layer 1"><path class="cls-1" d="M.18.12h128V85.45a1.45,1.45,0,0,1-.77.07H1a4.83,4.83,0,0,1-.76,0,1.14,1.14,0,0,1-.11-.78V.82A1.28,1.28,0,0,1,.18.12Z" transform="translate(0 -0.12)"/><path class="cls-2" d="M.18.12V85.45h128s.07.15-.07.15H0Q0,43.18.05.76C.05.55-.12.28.18.12Z" transform="translate(0 -0.12)"/><path class="cls-3" d="M21.61,9l2.77,8.52h9l.08.15L26.17,23l2.77,8.57-.13.1-7.29-5.29-7.31,5.3-.13-.1L16.86,23,9.38,17.52h9.24L21.41,9Z" transform="translate(0 -0.12)"/><path class="cls-3" d="M49.84,30.55,47.43,28.9a27.62,27.62,0,0,1,2.94-.23l.85-2.9,1.06,2.79h2.81l.07.13L53,30.43l.9,2.6-.15.09-2.26-1.48L49,33.48Z" transform="translate(0 -0.12)"/><path class="cls-3" d="M47.08,38.72l-2.94.83-.19,3-1.69-2.5-2.94.79,1.89-2.41-1.68-2.56,2.89,1,1.84-2.28v3Z" transform="translate(0 -0.12)"/><path class="cls-3" d="M39.55,10.47l1.65-2L39.65,5.87l2.83,1.18,2-2.28-.23,3L47,9l-2.9.69c-.25.93-.15,1.91-.38,3l-1.52-2.5c-.82,0-1.56.39-2.36.44C39.69,10.74,39.55,10.74,39.55,10.47Z" transform="translate(0 -0.12)"/><path class="cls-3" d="M50.62,21.09l-.42-2.76-2.71-.5-.06-.16,2.49-1.25-.38-2.82,1.91,2c1.07-.25,1.79-.9,2.86-1.15L53,17l2.09,2.22-3-.51L50.79,21.1Z" transform="translate(0 -0.12)"/><path class="cls-4" d="M39.55,10.47l.33.19a.53.53,0,0,1-.5.09A.28.28,0,0,1,39.55,10.47Z" transform="translate(0 -0.12)"/></g></g></svg>