<svg xmlns="http://www.w3.org/2000/svg" viewBox="0 0 128.23 97.04"><defs><style>.cls-1{fill:#c50c30;}.cls-2{fill:#fefefe;}</style></defs><title>denmarkFlag</title><g id="Layer_2" data-name="Layer 2"><g id="Layer_1-2" data-name="Layer 1"><path class="cls-1" d="M128.1,97.08H55.45a1,1,0,0,1-.37-.76c0-.26,0-.51,0-.77q0-19.24,0-38.49c0-.29,0-.57,0-.86a1,1,0,0,1,1-1c.43,0,.86,0,1.29,0H126.2c.64,0,1.33-.14,1.83.25a1.4,1.4,0,0,1,.15.86v40A1.41,1.41,0,0,1,128.1,97.08Z" transform="translate(-0.09 -0.04)"/><path class="cls-2" d="M128.1,97.08V55.62H55.45V97.08H41.61a1.13,1.13,0,0,1-.38-.93c0-.49,0-1,0-1.47V57.79c0-1.81,0-1.83-1.84-1.83H1.88c-.61,0-1.28.18-1.78-.39V41.72A1.09,1.09,0,0,1,1,41.35c.49,0,1,0,1.47,0H39.32c1.89,0,1.9,0,1.9-1.86v-37c0-1.86,0-1.86-1.9-1.86H1.88C1.27.6.6.78.1.21.14.16,0,0,.18,0H128.27q0,48.12,0,96.26C128.26,96.55,128.46,96.88,128.1,97.08Z" transform="translate(-0.09 -0.04)"/><path class="cls-1" d="M.1.21H41.56V41.72H.1Z" transform="translate(-0.09 -0.04)"/><path class="cls-1" d="M.1,55.56H41.61V97.08H.1Z" transform="translate(-0.09 -0.04)"/><path class="cls-1" d="M128.07.26V41.67H55.5V.26Z" transform="translate(-0.09 -0.04)"/></g></g></svg>