<svg xmlns="http://www.w3.org/2000/svg" viewBox="0 0 128.19 85.5"><defs><style>.cls-1{fill:#fefefe;}.cls-2{fill:#002394;}.cls-3{fill:#ec2939;}</style></defs><title>franceFlag</title><g id="Layer_2" data-name="Layer 2"><g id="Layer_1-2" data-name="Layer 1"><path class="cls-1" d="M85.43,85.53H42.76a1.14,1.14,0,0,1-.22-.8c0-.33,0-.66,0-1V1.9c0-1.59.09-1.47-1.46-1.47H1.47A2,2,0,0,1,.1.2S0,.05.17.06H.74Q64.18.06,127.6,0c.53,0,.65.12.65.66q0,42.09,0,84.19c0,.21.17.49-.13.64a1.15,1.15,0,0,1-.23-.8c0-.33,0-.66,0-1V1.89c0-1.6.06-1.45-1.47-1.46H87c-1.33,0-1.34,0-1.34,1.32q0,41.13,0,82.27A2.21,2.21,0,0,1,85.43,85.53Z" transform="translate(-0.08 -0.04)"/><path class="cls-2" d="M.1.2Q21,.2,42,.18c.65,0,.8.17.8.81q0,42.27,0,84.54-21,0-42.09,0c-.49,0-.59-.1-.59-.59Q.11,42.59.1.2Z" transform="translate(-0.08 -0.04)"/><path class="cls-3" d="M85.43,85.53q0-42.22,0-84.46c0-.71.15-.89.88-.89q20.5,0,41,0c.66,0,.8.18.8.82q0,42.26,0,84.53Z" transform="translate(-0.08 -0.04)"/></g></g></svg>