<svg xmlns="http://www.w3.org/2000/svg" viewBox="0 0 128.17 85.53"><defs><style>.cls-1{fill:#dd2910;}.cls-2{fill:#fefefe;}.cls-3{fill:#f9deda;}.cls-4{fill:#ed9286;}.cls-5{fill:#ef9b90;}.cls-6{fill:#f4bcb4;}.cls-7{fill:#e1432c;}.cls-8{fill:#e97262;}.cls-9{fill:#f0a094;}.cls-10{fill:#dd2a12;}.cls-11{fill:#dd2a11;}</style></defs><title>hkFlag</title><g id="Layer_2" data-name="Layer 2"><g id="Layer_1-2" data-name="Layer 1"><path class="cls-1" d="M128.17.2q0,42.35,0,84.69c0,.54-.12.66-.65.66q-63.67,0-127.36,0a1.51,1.51,0,0,1-.07-.76V1C.1,0,0,.13,1,.13H127.4A1.56,1.56,0,0,1,128.17.2Z" transform="translate(-0.01 -0.02)"/><path class="cls-2" d="M128.17.2Q64.6.2,1,.18C.32.18.15.34.15,1.06q0,42.24,0,84.47S0,85.61,0,85.46v-.57Q0,42.8,0,.7C0,.16.13,0,.67,0q63.42,0,126.86,0C127.74.07,128-.1,128.17.2Z" transform="translate(-0.01 -0.02)"/><path class="cls-2" d="M64.46,41A12.08,12.08,0,0,1,76.65,30.57a13.29,13.29,0,0,1,12.89,9.88c0,.07,0,.14.06.33a5.43,5.43,0,0,0-2.38-1.32,4.47,4.47,0,0,0-4.39,1.74,5.18,5.18,0,0,1-3.25,1.88,6.77,6.77,0,0,1-6.27-1.82,5.55,5.55,0,0,0-7.7-.55l-.82.72a8.57,8.57,0,0,1,3.43-3.94,9.7,9.7,0,0,1,7.08-1.37l.28.06c.14,0,.32,0,.34-.15s-.18-.2-.3-.23a9.14,9.14,0,0,0-2.9-.18A9.66,9.66,0,0,0,64.58,41C64.55,41.07,64.51,41.08,64.46,41Z" transform="translate(-0.01 -0.02)"/><path class="cls-2" d="M62.84,41.5a7.85,7.85,0,0,1-2.64-4.64,9.76,9.76,0,0,1,1-6.74c.09-.16.4-.36.09-.52s-.31.2-.4.36A10.07,10.07,0,0,0,62,41.38c.1.12.27.2.26.39A11.82,11.82,0,0,1,56,28.49,13.22,13.22,0,0,1,70,18.06l-.24.19c-2.34,1.63-2.86,3.82-1.41,6.28A5.35,5.35,0,0,1,69.16,28a6.74,6.74,0,0,1-3.68,5.69,5.52,5.52,0,0,0-2.67,7.66A.52.52,0,0,1,62.84,41.5Z" transform="translate(-0.01 -0.02)"/><path class="cls-2" d="M62.53,44.29a11.77,11.77,0,0,1-15.18,1.54,13.21,13.21,0,0,1-5-16.16c.12.36.21.7.34,1A4.17,4.17,0,0,0,48,33.23c3.63-1,7.49,2.6,7.79,5.43A5.47,5.47,0,0,0,62,43.73c.12,0,.28-.1.42.11a4.9,4.9,0,0,1-1.8.72,9.64,9.64,0,0,1-9.38-2.71c-.16-.16-.32-.58-.57-.35s.14.43.3.59a10.09,10.09,0,0,0,11.23,2.33Z" transform="translate(-0.01 -0.02)"/><path class="cls-2" d="M66.47,43.13a9.63,9.63,0,0,1,7.52,8c0,.27-.06.79.27.75s.14-.52.1-.78a10,10,0,0,0-8-8.4c0-.38.33-.09.42-.25a12.24,12.24,0,0,1,10,3.54,13.32,13.32,0,0,1-2.49,20.26,1.35,1.35,0,0,1-.28.1,4.84,4.84,0,0,0,.49-2.84,4.06,4.06,0,0,0-2.74-3.28c-3-1-4.33-4.66-3.91-7.31a5.75,5.75,0,0,1,.61-1.73,6.07,6.07,0,0,0,.74-3.56A5.13,5.13,0,0,0,66,43.26C66.1,42.94,66.31,43.12,66.47,43.13Z" transform="translate(-0.01 -0.02)"/><path class="cls-2" d="M65.29,45.15c3,6.85-.21,14-7,16.6-4.83,1.89-9.31,1-13.54-2.2a14.49,14.49,0,0,0,1.73-.09,4.24,4.24,0,0,0,3.52-4.31c.14-3.69,4.76-6.24,7.34-5.67a5.75,5.75,0,0,0,5.31-1.33A4.83,4.83,0,0,0,64.33,45c.17-.09-.13-.44.24-.41a9.67,9.67,0,0,1-5.5,10.3c-.16.08-.52.09-.39.37s.38,0,.55,0a10.14,10.14,0,0,0,5.82-8.1c.09-.51,0-1,0-1.55C65.11,45.42,65,45.17,65.29,45.15Z" transform="translate(-0.01 -0.02)"/><path class="cls-3" d="M65.29,45.15c-.29.63.11,1.35-.24,2l0-2.25c0-.16,0-.18.15-.16Z" transform="translate(-0.01 -0.02)"/><path class="cls-4" d="M64.57,44.6l-.24.41V44C64.49,44.21,64.62,44.37,64.57,44.6Z" transform="translate(-0.01 -0.02)"/><path class="cls-5" d="M66.74,42.46l-.42.25h-.54A1.06,1.06,0,0,1,66.74,42.46Z" transform="translate(-0.01 -0.02)"/><path class="cls-6" d="M66.47,43.13l-.43.13-.56-.12c-.08-.14,0-.17.11-.16C65.89,43,66.2,42.94,66.47,43.13Z" transform="translate(-0.01 -0.02)"/><path class="cls-7" d="M65.59,43l-.11.16c-.15,0-.31-.06-.41-.22A.49.49,0,0,1,65.59,43Z" transform="translate(-0.01 -0.02)"/><path class="cls-8" d="M64.46,41l.12,0-.17.46A.27.27,0,0,1,64.46,41Z" transform="translate(-0.01 -0.02)"/><path class="cls-9" d="M65.15,44.72l-.15.16a.68.68,0,0,1-.11-.46C65.09,44.44,65.11,44.59,65.15,44.72Z" transform="translate(-0.01 -0.02)"/><path class="cls-10" d="M75.9,37.34a1.67,1.67,0,0,0,1.22-2.23c.7.8,1.41,1.22,2.43.45a1.76,1.76,0,0,0,.4,2.55,1.65,1.65,0,0,0-2.31,1.07C77.6,38,77.12,37.39,75.9,37.34Z" transform="translate(-0.01 -0.02)"/><path class="cls-11" d="M64.48,26.4a1.59,1.59,0,0,0,.4,2.51c-1.18-.34-1.95-.06-2.34,1.16,0-1.26-.58-1.85-1.78-1.9,1.05-.4,1.6-1,1.23-2.24C62.71,26.79,63.47,27.11,64.48,26.4Z" transform="translate(-0.01 -0.02)"/><path class="cls-11" d="M47.34,39.72c1.15-.41,1.61-1.07,1.13-2.26.58.22.79.77,1.22.88s.85-.31,1.46-.4a1.59,1.59,0,0,0,.28,2.5,1.59,1.59,0,0,0-2.26,1.11C49,40.47,48.7,39.64,47.34,39.72Z" transform="translate(-0.01 -0.02)"/><path class="cls-11" d="M73.08,52.2a1.57,1.57,0,0,0,2.46.59c-.59.94-.71,1.76.38,2.47-1.1-.18-2-.12-2.28,1.17-.13-1.13-.54-1.86-1.94-1.79.61-.39,1.14-.56,1.34-.92S73.08,52.85,73.08,52.2Z" transform="translate(-0.01 -0.02)"/><path class="cls-11" d="M58.27,56.77A1.61,1.61,0,0,0,56,57.85c-.1-1.11-.48-1.87-1.7-1.88.38-.25.91-.42,1.12-.77s0-.86,0-1.49c.7.92,1.48,1.22,2.49.5A1.67,1.67,0,0,0,58.27,56.77Z" transform="translate(-0.01 -0.02)"/></g></g></svg>