<svg xmlns="http://www.w3.org/2000/svg" viewBox="0 0 128.19 85.51"><defs><style>.cls-1{fill:#fefefe;}.cls-2{fill:#ad1c28;}.cls-3{fill:#21468a;}</style></defs><title>nlFlag_1</title><g id="Layer_2" data-name="Layer 2"><g id="Layer_1-2" data-name="Layer 1"><path class="cls-1" d="M.11,57.07V28.63a1.16,1.16,0,0,1,.8-.23H126.27c1.78,0,1.6.12,1.61-1.61v-25c0-1.33,0-1.33-1.32-1.33H1.62A2.21,2.21,0,0,1,.11.18S0,0,.18,0H127.61c.54,0,.66.12.66.65q0,42.11,0,84.2c0,.2.17.48-.13.64a1.85,1.85,0,0,1-.23-1.3V58.76c0-1.53.11-1.45-1.48-1.45H1.62A2.21,2.21,0,0,1,.11,57.07Z" transform="translate(-0.1 -0.03)"/><path class="cls-2" d="M.11.18H127.25c.7,0,.88.14.88.87q0,13.4,0,26.8c0,.66-.18.8-.81.8H.11Z" transform="translate(-0.1 -0.03)"/><path class="cls-3" d="M.11,57.07q63.57,0,127.14,0c.7,0,.88.15.88.88,0,9.19,0,18.39,0,27.59q-63.65,0-127.3,0c-.64,0-.71-.17-.71-.74Q.13,70.93.11,57.07Z" transform="translate(-0.1 -0.03)"/></g></g></svg>