<svg xmlns="http://www.w3.org/2000/svg" viewBox="0 0 128.02 80.02"><defs><style>.cls-1{fill:#fdfdfd;}.cls-2{fill:#da143c;}</style></defs><title>polandFlag</title><g id="Layer_2" data-name="Layer 2"><g id="Layer_1-2" data-name="Layer 1"><path class="cls-1" d="M.1,40.1Q.1,20.33.09.56C.09.2.14.09.54.09q63.56,0,127.12,0c.4,0,.45.11.45.47q0,19.77,0,39.54a.79.79,0,0,1-.51.16H1.21A1.65,1.65,0,0,1,.1,40.1Z" transform="translate(-0.09 -0.09)"/><path class="cls-2" d="M.1,40.1h128q0,19.77,0,39.55c0,.37-.09.46-.46.46q-63.56,0-127.1,0c-.37,0-.46-.09-.46-.46Q.11,59.88.1,40.1Z" transform="translate(-0.09 -0.09)"/></g></g></svg>