<svg xmlns="http://www.w3.org/2000/svg" viewBox="0 0 128.14 85.52"><defs><style>.cls-1{fill:#fd0000;}.cls-2{fill:#fefefe;}.cls-3{fill:#000094;}.cls-4{fill:#fdfdfe;}</style></defs><title>taiwanFlag_1</title><g id="Layer_2" data-name="Layer 2"><g id="Layer_1-2" data-name="Layer 1"><path class="cls-1" d="M128.17.2V85.53H.17a1.39,1.39,0,0,1-.06-.7q0-20.64,0-41.28a2.07,2.07,0,0,1,0-.7.92.92,0,0,1,.77-.28h61.5a2.76,2.76,0,0,0,1.27-.12c.3-.37.18-.81.18-1.23q0-19.83,0-39.67c0-.46-.12-1,.26-1.35a1.67,1.67,0,0,1,.77-.06q31.25,0,62.5,0A1.41,1.41,0,0,1,128.17.2Z" transform="translate(-0.03 -0.02)"/><path class="cls-2" d="M128.17.2H65l-.85,0a1.07,1.07,0,0,1-.78.27H1.91A2.59,2.59,0,0,0,.65.62C.37,1,.47,1.39.47,1.78V41.86a1.28,1.28,0,0,1-.27,1c0,.29,0,.57,0,.85V85.53S0,85.6,0,85.46s0-.38,0-.57V.05h127.5C127.74.06,128-.1,128.17.2Z" transform="translate(-0.03 -0.02)"/><path class="cls-3" d="M.2,42.86c0-.16,0-.33,0-.49V.3C.37.13.57.2.75.2H63.68l.49,0V42.86Z" transform="translate(-0.03 -0.02)"/><path class="cls-2" d="M32.21,13.54a8,8,0,1,1-8,8A8,8,0,0,1,32.21,13.54Z" transform="translate(-0.03 -0.02)"/><path class="cls-4" d="M18.43,29.49l5.1-5.16a10.38,10.38,0,0,0,1.92,3.29Z" transform="translate(-0.03 -0.02)"/><path class="cls-4" d="M23.57,18.69l-5-5.09,6.9,1.83A10.05,10.05,0,0,0,23.57,18.69Z" transform="translate(-0.03 -0.02)"/><path class="cls-4" d="M29.32,12.92a10.07,10.07,0,0,0-3.23,1.86L24.28,8.09C24.7,8.13,28.17,11.42,29.32,12.92Z" transform="translate(-0.03 -0.02)"/><path class="cls-4" d="M24.32,34.83l1.77-6.56a10,10,0,0,0,3,1.8Z" transform="translate(-0.03 -0.02)"/><path class="cls-4" d="M38.9,27.61a9.38,9.38,0,0,0,1.85-3.15L45.6,29.4Z" transform="translate(-0.03 -0.02)"/><path class="cls-4" d="M45.75,13.62l-5,5a9.92,9.92,0,0,0-1.86-3.17Z" transform="translate(-0.03 -0.02)"/><path class="cls-4" d="M40.08,35.06l-5-5a9.3,9.3,0,0,0,3.13-1.86C38.87,30.54,39.46,32.75,40.08,35.06Z" transform="translate(-0.03 -0.02)"/><path class="cls-4" d="M38.26,14.8A9.43,9.43,0,0,0,35.14,13L40,8.15Z" transform="translate(-0.03 -0.02)"/><path class="cls-2" d="M41.06,23.43a9.54,9.54,0,0,0,0-3.8l6.85,1.82,0,.15Z" transform="translate(-0.03 -0.02)"/><path class="cls-2" d="M30.27,30.42a10.55,10.55,0,0,0,3.8,0l-1.82,6.81-.14,0Z" transform="translate(-0.03 -0.02)"/><path class="cls-2" d="M23.29,19.63a10.12,10.12,0,0,0,0,3.8L16.46,21.6v-.15Z" transform="translate(-0.03 -0.02)"/><path class="cls-2" d="M34.07,12.64a10.5,10.5,0,0,0-3.79,0l1.81-6.81.15,0Z" transform="translate(-0.03 -0.02)"/></g></g></svg>