<svg xmlns="http://www.w3.org/2000/svg" viewBox="0 0 128.19 85.51"><defs><style>.cls-1{fill:#fefefe;}.cls-2{fill:#ec2939;}</style></defs><title>austriaFlag</title><g id="Layer_2" data-name="Layer 2"><g id="Layer_1-2" data-name="Layer 1"><path class="cls-1" d="M.11,57V28.6a1.15,1.15,0,0,1,.8-.23c.33,0,.66,0,1,0H126.27c1.78,0,1.6.12,1.6-1.62q0-12.51,0-25c0-1.33,0-1.33-1.32-1.33H1.62A2.26,2.26,0,0,1,.11.16S0,0,.18,0H127.61c.53,0,.65.12.65.65q0,42.11,0,84.2c0,.21.16.48-.13.64a1.85,1.85,0,0,1-.23-1.3q0-12.72,0-25.45c0-1.53.11-1.46-1.48-1.46H1.62A2.21,2.21,0,0,1,.11,57Z" transform="translate(-0.09)"/><path class="cls-2" d="M.11.16q63.55,0,127.13,0c.7,0,.89.14.89.87q0,13.41,0,26.81c0,.66-.18.79-.81.79H.11Z" transform="translate(-0.09)"/><path class="cls-2" d="M.11,57q63.55,0,127.13,0c.7,0,.89.14.89.87,0,9.2,0,18.39,0,27.59q-63.66,0-127.31,0c-.63,0-.71-.18-.71-.74Q.12,70.9.11,57Z" transform="translate(-0.09)"/></g></g></svg>