<svg xmlns="http://www.w3.org/2000/svg" viewBox="0 0 21.87 21.87"><defs><style>.cls-1{fill:#f38585;}.cls-2{fill:#ed4142;}</style></defs><title>live</title><g id="Layer_2" data-name="Layer 2"><g id="Layer_1-2" data-name="Layer 1"><g id="vtAbQB.tif"><path class="cls-1" d="M11.75.83A10.94,10.94,0,1,1,.82,11.72,10.9,10.9,0,0,1,11.75.83ZM4.19,11.67a7.63,7.63,0,0,0,7.69,7.81,7.48,7.48,0,0,0,7.83-7.79A7.61,7.61,0,0,0,11.94,4,7.61,7.61,0,0,0,4.19,11.67Z" transform="translate(-0.82 -0.83)"/><path class="cls-2" d="M4.19,11.67A7.61,7.61,0,0,1,11.94,4a7.61,7.61,0,0,1,7.77,7.73,7.48,7.48,0,0,1-7.83,7.79A7.63,7.63,0,0,1,4.19,11.67Z" transform="translate(-0.82 -0.83)"/></g></g></g></svg>