<svg xmlns="http://www.w3.org/2000/svg" viewBox="0 0 26.03 28.44"><title>owwc_1</title><g id="Layer_2" data-name="Layer 2"><g id="Layer_1-2" data-name="Layer 1"><g id="FSgFTe.tif"><path d="M27,16.23l-.69,4.14H24.18c-.16,0-.2.05-.19.19v2.11a1.62,1.62,0,0,1-.87,1.51L14.78,29a1.6,1.6,0,0,1-1.7,0L4.72,24.17a1.56,1.56,0,0,1-.85-1.47V20.61c0-.27,0-.24-.25-.24h-2L.93,16.23H3.68c.15,0,.19,0,.19-.2V7.36a1.6,1.6,0,0,1,.85-1.48c2.79-1.61,5.58-3.23,8.37-4.83a1.59,1.59,0,0,1,1.68,0L23.1,5.86A1.66,1.66,0,0,1,24,7.4V16c0,.21,0,.21.21.21H27ZM13.57,8h0a.22.22,0,0,1,0,.08c0,1.31,0,2.62,0,3.94a.31.31,0,0,1-.09.2l-2.4,2.32-.16.09a4.85,4.85,0,0,0,3.51.95,4.71,4.71,0,0,0,2.36-.93.79.79,0,0,1-.13-.12l-2.4-2.3a.3.3,0,0,1-.11-.23c0-1.3,0-2.6,0-3.9V8l.08.15c.36.81.71,1.62,1.07,2.42a.52.52,0,0,0,.14.21L18,13.18l.09.07a4.46,4.46,0,0,0,.63-2.14,4.72,4.72,0,0,0-1.49-3.69L18.42,6a6.51,6.51,0,0,1,2.1,3.86A6.64,6.64,0,0,1,18,16.23h5c.14,0,.18,0,.18-.18V7.34a.81.81,0,0,0-.44-.75L14.39,1.77a.86.86,0,0,0-1,0l-5,2.88L5.12,6.58a.78.78,0,0,0-.45.71v8.77c0,.13,0,.18.17.18h5A6.63,6.63,0,0,1,9.38,6l1.18,1.45a4.74,4.74,0,0,0-.83,5.81l.06,0,2.53-2.45a.52.52,0,0,0,.12-.17c.18-.39.35-.78.52-1.17Zm.37,12.34H4.85c-.15,0-.18.05-.18.19,0,.71,0,1.42,0,2.14a.81.81,0,0,0,.46.78l8.33,4.81a.85.85,0,0,0,.91,0l8.37-4.84a.8.8,0,0,0,.43-.75V20.6c0-.23,0-.23-.23-.23ZM4.28,16.21c.27.06.29.05.29-.2V7.44a1,1,0,0,1,.57-1L13.4,1.69a1,1,0,0,1,1.06,0l8.23,4.75a1,1,0,0,1,.59,1c0,2.84,0,5.67,0,8.5a.48.48,0,0,0,0,.17.19.19,0,0,0,.1.1c.16,0,.18,0,.18-.17V7.38a1.24,1.24,0,0,0-.66-1.14L14.62,1.46a1.29,1.29,0,0,0-1.41,0L5,6.21a1.31,1.31,0,0,0-.71,1.22v8.78Zm19.28,5.46V20.51c0-.1,0-.14-.13-.14s-.16.07-.16.18c0,.7,0,1.4,0,2.1a1,1,0,0,1-.55.94Q18.62,26,14.52,28.34a1,1,0,0,1-1.16,0l-1.23-.71-7-4.06a1,1,0,0,1-.53-.92V20.53c0-.11,0-.16-.14-.16s-.15.05-.15.16v2.18a1.2,1.2,0,0,0,.63,1.09l8.39,4.84a1.16,1.16,0,0,0,1.23,0L23,23.78a1.13,1.13,0,0,0,.61-1.05Zm-8.68-3.39a1.16,1.16,0,0,0-.08-.16l-.27-.64c0-.08-.09-.13-.18-.12a.21.21,0,0,1-.11,0c-.16,0-.25,0-.31.2s-.2.45-.31.71c-.12-.28-.22-.53-.33-.77,0-.05-.06-.12-.09-.12-.21,0-.42,0-.63,0v.06c.26.58.51,1.16.77,1.75,0,0,0,.07.06.07a1.61,1.61,0,0,0,.38,0c.05,0,.09-.13.12-.2l.32-.7a6.7,6.7,0,0,1,.28.65.34.34,0,0,0,.41.27.25.25,0,0,0,.25-.16c.22-.53.46-1.06.69-1.59l.05-.16c-.18,0-.34,0-.5,0a.16.16,0,0,0-.18.12C15.12,17.74,15,18,14.88,18.28ZM12,18.57l.1,0c.27-.08.34-.17.34-.45v-.23c0-.33-.14-.49-.47-.49H10.31c-.09,0-.12,0-.12.13v1.65c0,.09,0,.13.13.12h.39c.12,0,.15,0,.15-.16,0-.32,0-.65,0-1v-.25h.86c.1,0,.1.07.1.13s0,.14-.1.14-.29,0-.43,0-.18,0-.18.18a.39.39,0,0,0,.17.37,2.66,2.66,0,0,1,.35.32.69.69,0,0,0,.64.25,4,4,0,0,1,.49,0v0Zm-8.62-.69H4.47s.09,0,.09.06c0,.26,0,.52,0,.79H3.84s-.11,0-.13,0-.32.3-.48.46l0,0H4.42a3.15,3.15,0,0,0,.44,0,.41.41,0,0,0,.37-.45c0-.2,0-.39,0-.59a.92.92,0,0,0-.18-.62.4.4,0,0,0-.37-.2h-.9c-.21,0-.42,0-.63,0a.41.41,0,0,0-.4.42v1a.43.43,0,0,0,.29.4,1.06,1.06,0,0,1,.17-.2.53.53,0,0,0,.2-.5C3.4,18.31,3.41,18.11,3.41,17.88Zm20,.67h1.11v.58c0,.1,0,.13.13.13a2.81,2.81,0,0,1,.41,0c.09,0,.12,0,.12-.13V17.49c0-.08,0-.12-.12-.12h-.38c-.12,0-.17,0-.16.16s0,.32,0,.48H23.38c0-.18,0-.35,0-.52s0-.13-.12-.12h-.41c-.09,0-.13,0-.13.13v1.63c0,.09,0,.13.12.13a2.67,2.67,0,0,1,.4,0c.11,0,.14,0,.14-.14S23.38,18.75,23.38,18.55Zm-2.58-.67h.93s.07.05.09.09,0,.07,0,.11h.61q.14-.7-.51-.72t-1.26,0a.29.29,0,0,0-.2.11c-.1.14-.2.29-.29.44a.33.33,0,0,0-.05.16c0,.25,0,.49,0,.74a.37.37,0,0,0,.25.37.93.93,0,0,0,.33.07h1.15c.49,0,.69-.26.58-.76h-.62l0,.24H20.9s-.1-.06-.1-.1C20.79,18.4,20.8,18.15,20.8,17.88Zm-12.18.2c0-.16,0-.2.14-.2h.83c.37,0,.36,0,.36-.37,0-.12,0-.16-.16-.16-.41,0-.82,0-1.23,0a.46.46,0,0,0-.45.23.89.89,0,0,0-.17.54c0,.31,0,.63,0,.94s0,.19.2.19h1.5c.33,0,.3,0,.3-.29s0-.23-.23-.23H8.62v-.2h.77s.11,0,.11-.06,0-.25,0-.39Zm8.24,0,.69,1.07s.06.1.1.1h.71l-.11-.17c-.31-.49-.64-1-.94-1.45a.46.46,0,0,0-.51-.28.31.31,0,0,0-.26.14c-.35.53-.71,1.06-1.06,1.6l-.1.16H16a.22.22,0,0,0,.23-.12ZM5.15,17.37l.1.16c.32.51.64,1,1,1.52a.38.38,0,0,0,.39.21.3.3,0,0,0,.3-.16l1-1.56a1.94,1.94,0,0,0,.1-.17H7.32s-.07.05-.1.09l-.38.61-.26.41c-.21-.35-.41-.68-.62-1a.28.28,0,0,0-.13-.11C5.62,17.36,5.41,17.37,5.15,17.37Zm13.49.52v1.23c0,.1,0,.15.14.14s.26,0,.39,0,.14,0,.14-.15c0-.31,0-.63,0-.94v-.29c.18,0,.35,0,.51,0s.11,0,.13,0,.2-.3.33-.48H18.17c-.4,0-.33-.05-.35.35,0,.15.05.19.19.18S18.42,17.89,18.64,17.89Zm6.73-.33a.19.19,0,0,0,.19.19.19.19,0,0,0,0-.37A.18.18,0,0,0,25.37,17.56Z" transform="translate(-0.93 -0.81)"/><path d="M16.86,7.07a5,5,0,0,0-5.93,0L9.77,5.64c.25-.16.48-.33.73-.48a6.44,6.44,0,0,1,2.59-.85,6.71,6.71,0,0,1,4.79,1.24c.12.08.12.13,0,.24l-1,1.2Z" transform="translate(-0.93 -0.81)"/><path d="M7.57,22.3c.09-.31.19-.62.27-.93,0-.13.09-.17.22-.16H8.4c0,.06,0,.1,0,.15C8.2,21.89,8,22.41,7.86,23c0,.09-.06.12-.16.12-.38,0-.38,0-.49-.36L7,22.12l0,0a1.12,1.12,0,0,0,0,.13c-.09.25-.17.49-.25.73a.14.14,0,0,1-.16.12c-.38,0-.38,0-.49-.36s-.27-.89-.4-1.33c0-.05,0-.1,0-.17h.45s.08.07.1.11c.07.27.14.55.22.83,0,0,0,.09,0,.17a.69.69,0,0,0,.06-.13c.09-.26.19-.53.26-.8s.13-.19.28-.2.2.05.24.19.16.54.25.82l0,.09Z" transform="translate(-0.93 -0.81)"/><path d="M8.55,22.11a1,1,0,1,1,1,1A1,1,0,0,1,8.55,22.11Zm1.52,0a.48.48,0,0,0-.49-.48.49.49,0,0,0-.51.48.51.51,0,0,0,.49.52A.5.5,0,0,0,10.07,22.12Z" transform="translate(-0.93 -0.81)"/><path d="M14.29,23.07a.72.72,0,0,1,0-.13c0-.53,0-1.06,0-1.58,0-.12,0-.16.16-.15s.41,0,.61,0a.92.92,0,0,1,0,1.84C14.79,23.08,14.54,23.07,14.29,23.07Zm.5-.45a.46.46,0,0,0,.52-.2.55.55,0,0,0,0-.59.46.46,0,0,0-.5-.16Z" transform="translate(-0.93 -0.81)"/><path d="M12.49,23.07h-.55a.26.26,0,0,1-.13-.1c-.12-.17-.23-.35-.34-.52h0v.61a2.91,2.91,0,0,1-.42,0s-.08-.07-.08-.1V21.32s.07-.1.1-.1h.74a.52.52,0,0,1,.52.43.54.54,0,0,1-.31.65l-.05,0Zm-1.05-1a1.22,1.22,0,0,0,.3-.13s0-.16,0-.22-.18-.11-.31-.1Z" transform="translate(-0.93 -0.81)"/><path d="M20.43,21.9c0,.2,0,.4,0,.6a.57.57,0,0,1-.46.56,1.37,1.37,0,0,1-.57,0,.6.6,0,0,1-.58-.63c0-.38,0-.76,0-1.15,0,0,.06-.07.1-.1h0c.47,0,.37-.07.38.36,0,.27,0,.54,0,.81s.12.29.31.29.28-.1.29-.31,0-.66,0-1c0-.13,0-.17.17-.16.34,0,.34,0,.34.33v.36Z" transform="translate(-0.93 -0.81)"/><path d="M21.42,22.48v.59H21s-.07-.05-.07-.08c0-.58,0-1.17,0-1.75h0a7.37,7.37,0,0,1,.94,0,.53.53,0,0,1,.46.62.53.53,0,0,1-.51.59Zm0-.85V22c.14,0,.28.05.35-.08a.28.28,0,0,0,0-.25C21.7,21.59,21.56,21.62,21.42,21.63Z" transform="translate(-0.93 -0.81)"/><path d="M18.36,21.84c-.33-.24-.6-.24-.78,0a.51.51,0,0,0,0,.66c.18.21.45.21.79,0,0,.19,0,.37,0,.54s-.05.06-.08.07a1,1,0,0,1-1.16-.35,1,1,0,0,1,0-1.14,1,1,0,0,1,1.13-.36c.09,0,.13.07.12.17Z" transform="translate(-0.93 -0.81)"/><path d="M12.57,24.58c.06-.18.09-.35.16-.51a.51.51,0,0,1,.5-.31.56.56,0,0,1,.52.3,1,1,0,0,1,0,1,.57.57,0,0,1-1,0A3.31,3.31,0,0,1,12.57,24.58Zm.38,0a1.91,1.91,0,0,0,.1.38.2.2,0,0,0,.37,0,.87.87,0,0,0,0-.77.19.19,0,0,0-.35,0A2.17,2.17,0,0,0,13,24.55Z" transform="translate(-0.93 -0.81)"/><path d="M16.6,24.54s0,0,.06,0a.38.38,0,0,1,.22.38.42.42,0,0,1-.29.37.74.74,0,0,1-.6,0,.39.39,0,0,1-.24-.37.38.38,0,0,1,.23-.36.13.13,0,0,0,.06,0,.38.38,0,0,1-.21-.44.45.45,0,0,1,.47-.31.48.48,0,0,1,.5.27.35.35,0,0,1-.11.42Zm-.29.15a.2.2,0,0,0-.2.2.21.21,0,0,0,.21.2.2.2,0,0,0,.19-.21A.19.19,0,0,0,16.31,24.69Zm0-.3a.19.19,0,0,0,.19-.18.18.18,0,0,0-.19-.19.17.17,0,0,0-.18.18A.19.19,0,0,0,16.32,24.39Z" transform="translate(-0.93 -0.81)"/><path d="M13.89,23.06H12.83V21.21h.42s.06.08.07.12v1.14c0,.12,0,.17.15.16a1.82,1.82,0,0,1,.33,0,.11.11,0,0,1,.08.08A1.9,1.9,0,0,1,13.89,23.06Z" transform="translate(-0.93 -0.81)"/><path d="M11.6,25h.33c.12,0,.12.06.11.14s0,.17-.1.17h-1c.18-.2.35-.37.51-.56a1.38,1.38,0,0,0,.23-.36.23.23,0,0,0-.11-.32c-.11,0-.2,0-.25.22h-.36a.37.37,0,0,1,0-.11.5.5,0,0,1,.41-.41A.59.59,0,0,1,12,24a.51.51,0,0,1,0,.6,1.54,1.54,0,0,1-.25.26.59.59,0,0,1-.14.06Z" transform="translate(-0.93 -0.81)"/><path d="M14.41,23.84H15v1.49h-.23c-.1,0-.13,0-.13-.13v-.89c0-.1,0-.18-.13-.18s-.07-.05-.08-.08A1.46,1.46,0,0,1,14.41,23.84Z" transform="translate(-0.93 -0.81)"/></g></g></g></svg>