<svg xmlns="http://www.w3.org/2000/svg" viewBox="0 0 128.19 85.51"><defs><style>.cls-1{fill:#fefefe;}.cls-2{fill:#0039a5;}.cls-3{fill:#d42b1e;}</style></defs><title>russiaFlag</title><g id="Layer_2" data-name="Layer 2"><g id="Layer_1-2" data-name="Layer 1"><path class="cls-1" d="M.11,28.6q0-14,0-28C.09.1.19,0,.68,0h127c.49,0,.58.1.58.58q0,42.17,0,84.34c0,.18.16.44-.13.57a1.11,1.11,0,0,1-.23-.8c0-9.19,0-18.38,0-27.57v-.07c0-1,0-2,0-3V30.31c0-1.53.12-1.48-1.46-1.48H1.62A2.21,2.21,0,0,1,.11,28.6Z" transform="translate(-0.09)"/><path class="cls-2" d="M.11,28.6q63.57,0,127.14,0c.7,0,.88.16.88.88,0,8.93,0,17.87,0,26.8,0,.26,0,.52,0,.78a1,1,0,0,1-.72.23H1.62A2.21,2.21,0,0,1,.11,57Z" transform="translate(-0.09)"/><path class="cls-3" d="M.11,57h128c0,.67,0,1.33,0,2V85.49q-63.66,0-127.31,0c-.63,0-.71-.18-.71-.74Q.12,70.9.11,57Z" transform="translate(-0.09)"/></g></g></svg>