<svg xmlns="http://www.w3.org/2000/svg" viewBox="0 0 127.98 85.39"><defs><style>.cls-1{fill:#fefefe;}.cls-2{fill:#00479f;}.cls-3{fill:#cc2e3a;}.cls-4{fill:#2d438b;}.cls-5{fill:#696193;}.cls-6{fill:#a93953;}.cls-7{fill:#d0636f;}.cls-8{fill:#6c4c7e;}</style></defs><title>skFlag</title><g id="Layer_2" data-name="Layer 2"><g id="Layer_1-2" data-name="Layer 1"><path class="cls-1" d="M.11,85.45V.06h128V85.45Z" transform="translate(-0.11 -0.06)"/><path class="cls-2" d="M82.7,53.2A20.74,20.74,0,0,1,68.06,63.74,21.3,21.3,0,0,1,42.89,40.47a20.75,20.75,0,0,1,2.34-7.61l.08,0,0,.06c.08.22,0,.39-.1.58A10.53,10.53,0,0,0,64,42.74,10.59,10.59,0,0,1,71.1,38.1,10.4,10.4,0,0,1,80.46,41a10.28,10.28,0,0,1,3.22,6.44,8.88,8.88,0,0,1-.65,5c-.1.1-.07.25-.13.36l-.05.15C82.73,53,82.75,53.12,82.7,53.2Z" transform="translate(-0.11 -0.06)"/><path class="cls-3" d="M83,52.44a10.49,10.49,0,0,0-.1-7.62,10.67,10.67,0,0,0-18.73-2.09,10.67,10.67,0,0,1-18.9-9.63,2.21,2.21,0,0,0,.05-.25.86.86,0,0,1,.07-.21,2,2,0,0,0,.11-.2h0c.08-.06.06-.17.11-.24a20.51,20.51,0,0,1,5.91-6.62A21.32,21.32,0,0,1,83.19,52.3c0,.1-.11.19-.17.29A.1.1,0,0,1,83,52.44Z" transform="translate(-0.11 -0.06)"/><path d="M27.12,31,24.22,29c.15-.38,11.39-17.27,11.81-17.76l2.92,2C35,19.15,31.08,25,27.12,31Z" transform="translate(-0.11 -0.06)"/><path d="M89.25,13.23l3-2L104,29l-3,2Z" transform="translate(-0.11 -0.06)"/><path d="M31.56,33.93l-3-2L40.43,14.21l3,2Z" transform="translate(-0.11 -0.06)"/><path d="M28.6,53.64l3-2L43.39,69.41l-3,2Z" transform="translate(-0.11 -0.06)"/><path d="M22.68,28l-2.95-2c3.94-5.91,7.86-11.8,11.83-17.74l3,2Z" transform="translate(-0.11 -0.06)"/><path d="M34.52,75.33l-3,2L19.73,59.56l2.95-2Z" transform="translate(-0.11 -0.06)"/><path d="M94.67,64.24l3,2-5.42,8.13-3-2C91.06,69.66,92.85,67,94.67,64.24Z" transform="translate(-0.11 -0.06)"/><path d="M30.57,66.22l3-2L39,72.37l-3,2Z" transform="translate(-0.11 -0.06)"/><path d="M96.64,77.3l-3-2,5.42-8.13,3,2Z" transform="translate(-0.11 -0.06)"/><path d="M84.81,69.41l5.42-8.13,3,2-5.42,8.13Z" transform="translate(-0.11 -0.06)"/><path d="M84.81,16.19l3-2,5.42,8.12-3,2Z" transform="translate(-0.11 -0.06)"/><path d="M102.07,16.43l-3,2-5.42-8.13,3-2Z" transform="translate(-0.11 -0.06)"/><path d="M94.18,61.77l-3-2,5.42-8.13,3,2Z" transform="translate(-0.11 -0.06)"/><path d="M24.16,56.6l3-2,5.43,8.13-3,2Z" transform="translate(-0.11 -0.06)"/><path d="M98.62,64.73l-3-2c1.81-2.71,3.6-5.39,5.42-8.13l3,2Z" transform="translate(-0.11 -0.06)"/><path d="M103.05,67.69l-3-2c1.8-2.71,3.59-5.4,5.42-8.13l3,2Z" transform="translate(-0.11 -0.06)"/><path d="M91.22,25.8l3-2L99.6,32l-3,2C94.84,31.22,93,28.53,91.22,25.8Z" transform="translate(-0.11 -0.06)"/><path d="M108.48,26l-3,2c-1.8-2.71-3.6-5.4-5.42-8.13l3-2Z" transform="translate(-0.11 -0.06)"/><path class="cls-4" d="M45.41,32.66c0,.08,0,.16-.1.19h-.08l.1-.21S45.39,32.62,45.41,32.66Z" transform="translate(-0.11 -0.06)"/><path class="cls-5" d="M45.41,32.66h-.08c0-.08,0-.19.16-.21A.2.2,0,0,1,45.41,32.66Z" transform="translate(-0.11 -0.06)"/><path class="cls-6" d="M83,52.44l0,.15a.22.22,0,0,1-.12.21A.34.34,0,0,1,83,52.44Z" transform="translate(-0.11 -0.06)"/><path class="cls-7" d="M82.7,53.2c0-.11,0-.22.15-.25Z" transform="translate(-0.11 -0.06)"/><path class="cls-8" d="M45.6,32.21c0,.09,0,.19-.11.24A.23.23,0,0,1,45.6,32.21Z" transform="translate(-0.11 -0.06)"/></g></g></svg>