<svg xmlns="http://www.w3.org/2000/svg" viewBox="0 0 128.02 80.02"><defs><style>.cls-1{fill:#fccb00;}.cls-2{fill:#0069a6;}</style></defs><title>swedenFlag</title><g id="Layer_2" data-name="Layer 2"><g id="Layer_1-2" data-name="Layer 1"><path class="cls-1" d="M128.08,32.08v16a.53.53,0,0,1-.43.18H57.33c-1.07,0-1.07,0-1.07,1.07V79.17c0,.31.1.65-.18.91h-16a.53.53,0,0,1-.18-.43V49.19c0-.93,0-.93-.93-.93H1c-.32,0-.68.11-.95-.18v-16a.53.53,0,0,1,.43-.18H38.93c1,0,1,0,1-1V1c0-.31-.1-.65.18-.91h16a.53.53,0,0,1,.18.43V31c0,.95,0,.95,1,.95h70.44A.53.53,0,0,1,128.08,32.08Z" transform="translate(-0.07 -0.07)"/><path class="cls-2" d="M128.08,32.08H56.57c-.4,0-.5-.09-.5-.49q0-15.77,0-31.52h71.61c.31,0,.4,0,.4.38Q128.08,16.26,128.08,32.08Z" transform="translate(-0.07 -0.07)"/><path class="cls-2" d="M56.08,80.08q0-15.76,0-31.52c0-.4.1-.49.5-.49h71.51q0,15.83,0,31.64c0,.3-.07.37-.37.37Z" transform="translate(-0.07 -0.07)"/><path class="cls-2" d="M40.08.08q0,15.77,0,31.52c0,.4-.09.49-.49.49H.08Q.08,16.26.07.42C.07.12.14.07.42.07Z" transform="translate(-0.07 -0.07)"/><path class="cls-2" d="M.08,48.08H39.6c.4,0,.49.09.49.49q0,15.77,0,31.52H.42c-.28,0-.35,0-.35-.35Q.09,63.92.08,48.08Z" transform="translate(-0.07 -0.07)"/></g></g></svg>