<svg xmlns="http://www.w3.org/2000/svg" viewBox="0 0 33.52 28.33"><defs><style>.cls-1{font-size:10.67px;font-family:SFProDisplay-Regular, SF Pro Display;}</style></defs><title>tab_standings_2</title><g id="Layer_2" data-name="Layer 2"><g id="Layer_1-2" data-name="Layer 1"><g id="YDAPfZ"><path d="M18.23,29.66c-3.8,0-7.6,0-11.39,0A5,5,0,0,1,1.51,24.3V6.71A5,5,0,0,1,6.92,1.34h22.7A5,5,0,0,1,35,6.71v17.5c0,3.4-2.08,5.45-5.5,5.45C25.76,29.67,22,29.66,18.23,29.66ZM3.35,16.29v8.05a3.19,3.19,0,0,0,3.48,3.48H30A3.07,3.07,0,0,0,33.15,25c.07-2.87,0-5.74,0-8.62,0,0-.07-.08-.1-.12Zm29.83-1.74c0-2.75,0-5.42,0-8.09a3.14,3.14,0,0,0-3.26-3.27H6.64A3.15,3.15,0,0,0,3.35,6.52v7.36c0,.22,0,.43,0,.67Z" transform="translate(-1.51 -1.34)"/></g><text class="cls-1" transform="translate(3.18 11.76) scale(1.05 1)">1</text><text class="cls-1" transform="translate(3.18 24.48) scale(1.05 1)">2</text></g></g></svg>