<svg xmlns="http://www.w3.org/2000/svg" viewBox="0 0 899.95 599.88"><defs><style>.cls-1{fill:#fd0000;}.cls-2{fill:#000094;}.cls-3{fill:#fefefe;}.cls-4{fill:#fdfdfe;}</style></defs><title>taiwanFlag</title><g id="Layer_2" data-name="Layer 2"><g id="Layer_1-2" data-name="Layer 1"><path class="cls-1" d="M451,1H901V600.88H1V301a7.14,7.14,0,0,1,5.45-2c2.5,0,5,0,7.49,0q212.42,0,424.83,0c3,0,6,.44,8.75-.75,2.09-2.64,1.38-5.58,1.38-8.33Q449,150.39,449,11C449,7.54,448.08,3.85,451,1Z" transform="translate(-1 -1)"/><path class="cls-2" d="M451,1V301H1V1Z" transform="translate(-1 -1)"/><path class="cls-3" d="M226,207.14A56.14,56.14,0,1,1,282.14,151,56,56,0,0,1,226,207.14Z" transform="translate(-1 -1)"/><path class="cls-4" d="M178.35,108.08c-2.75,4.06-5.2,7.61-7.56,11.21a56.35,56.35,0,0,0-5.17,11.08L131.35,95.56Z" transform="translate(-1 -1)"/><path class="cls-4" d="M165.32,170.62c3,9,7.55,16.22,13.35,23.21-16.34,4.06-32,9.12-48.77,12.66C142,194.24,153.36,182.72,165.32,170.62Z" transform="translate(-1 -1)"/><path class="cls-4" d="M206.42,90.23a70.42,70.42,0,0,0-23.15,13.43c-4.37-16.15-8.59-31.73-12.82-47.31l.92-1C183.12,66.62,194.37,78.43,206.42,90.23Z" transform="translate(-1 -1)"/><path class="cls-4" d="M171.06,243.44c3.61-13.34,7.83-28.94,12.18-45,7,5.62,14.15,10.38,20.27,12.28Z" transform="translate(-1 -1)"/><path class="cls-4" d="M273.31,193.77c6-7.09,10.41-14.23,13-22.07L320,206.23Z" transform="translate(-1 -1)"/><path class="cls-4" d="M286.25,130.05c-2.53-7.57-7.05-14.8-12.86-21.81l47.33-12.67Z" transform="translate(-1 -1)"/><path class="cls-4" d="M247,211.23a66.81,66.81,0,0,0,21.76-12.92c4.32,16.15,8.49,31.7,12.67,47.31Z" transform="translate(-1 -1)"/><path class="cls-4" d="M268.77,103.69c-7.2-6.11-14.36-10.45-22-13l34.82-35Z" transform="translate(-1 -1)"/><path class="cls-3" d="M288.44,137.66l48,12.79.16,1-48.11,12.86A71,71,0,0,0,288.44,137.66Z" transform="translate(-1 -1)"/><path class="cls-3" d="M212.65,213.48a73.29,73.29,0,0,0,26.66,0c-4.38,16.44-8.57,32.19-12.76,47.93l-1,.1C221.31,245.82,217.1,230.12,212.65,213.48Z" transform="translate(-1 -1)"/><path class="cls-3" d="M226.54,40.55c4.19,15.74,8.39,31.48,12.78,48a70.42,70.42,0,0,0-26.64,0c4.37-16.45,8.56-32.2,12.75-47.95Z" transform="translate(-1 -1)"/><path class="cls-3" d="M163.48,164.31l-47.93-12.77-.07-1,48.08-12.86A72.24,72.24,0,0,0,163.48,164.31Z" transform="translate(-1 -1)"/></g></g></svg>