<svg xmlns="http://www.w3.org/2000/svg" viewBox="0 0 128.17 85.53"><defs><style>.cls-1{fill:#2d2a4a;}.cls-2{fill:#a41931;}.cls-3{fill:#f3f4f7;}.cls-4{fill:#fefefe;}</style></defs><title>thaiFlag</title><g id="Layer_2" data-name="Layer 2"><g id="Layer_1-2" data-name="Layer 1"><path class="cls-1" d="M128.21,28.62V57.07a.93.93,0,0,1-.76.31H2c-.59,0-1.24.19-1.77-.27a1.23,1.23,0,0,1-.07-.63V29.16a1.51,1.51,0,0,1,0-.56.8.8,0,0,1,.7-.28c.35,0,.71,0,1.06,0H126.46C127.05,28.31,127.7,28.11,128.21,28.62Z" transform="translate(-0.06)"/><path class="cls-2" d="M128.21.18V14.4a.9.9,0,0,1-.76.31H2c-.6,0-1.24.19-1.77-.27a1.67,1.67,0,0,1-.06-.77Q.14,7.31.14,1C.14,0,.05.11,1,.11H127.37A1.71,1.71,0,0,1,128.21.18Z" transform="translate(-0.06)"/><path class="cls-3" d="M.22,14.38l.92,0H128.21V28.62H1.07l-.85,0a.87.87,0,0,1-.07-.55q0-6.59,0-13.15A.9.9,0,0,1,.22,14.38Z" transform="translate(-0.06)"/><path class="cls-3" d="M.22,57.05l.92,0H128.21V71.29a.93.93,0,0,1-.76.31H2c-.59,0-1.24.19-1.77-.27a1,1,0,0,1-.07-.55V57.6A.82.82,0,0,1,.22,57.05Z" transform="translate(-0.06)"/><path class="cls-2" d="M.22,71.31l.92,0H128.21c0,4.52,0,9,0,13.58,0,.52-.1.66-.65.66q-63.69,0-127.37,0A.94.94,0,0,1,.15,85q0-6.55,0-13.1C.15,71.67.09,71.48.22,71.31Z" transform="translate(-0.06)"/><path class="cls-4" d="M.22,71.31v14.2s-.14.07-.14-.07,0-.38,0-.57Q.07,42.78.06.68C.06.14.18,0,.71,0l126.86,0c.21,0,.49-.17.64.13Q64.66.18,1.09.16C.33.16.19.38.2,1.09c0,4.43,0,8.86,0,13.29V71.31Z" transform="translate(-0.06)"/></g></g></svg>