<svg xmlns="http://www.w3.org/2000/svg" xmlns:xlink="http://www.w3.org/1999/xlink" viewBox="0 0 195 97.5"><defs><style>.cls-1{fill:none;}.cls-2{clip-path:url(#clip-path);}.cls-3{fill:#006;}.cls-4{fill:#fff;}.cls-5{fill:#c00;}</style><clipPath id="clip-path"><rect class="cls-1" x="32.5" width="130" height="97.5"/></clipPath></defs><title>ukFlag</title><g id="Layer_2" data-name="Layer 2"><g id="Layer_1-2" data-name="Layer 1"><g class="cls-2"><path class="cls-3" d="M0,0H195V97.5H0Z"/><path class="cls-4" d="M0,0V10.9L173.2,97.5H195V86.6L21.8,0ZM195,0V10.9L21.8,97.5H0V86.6L173.2,0Z"/><path class="cls-4" d="M81.25,0V97.5h32.5V0ZM0,32.5V65H195V32.5Z"/><path class="cls-5" d="M0,39V58.5H195V39ZM87.75,0V97.5h19.5V0ZM0,97.5,65,65H79.54l-65,32.5ZM0,0,65,32.5H50.47L0,7.27ZM115.47,32.5l65-32.5H195L130,32.5ZM195,97.5,130,65h14.54L195,90.23Z"/></g></g></g></svg>